<svg width="309" height="196" viewBox="0 0 309 196" fill="none" xmlns="http://www.w3.org/2000/svg">
<g opacity="0.2">
<mask id="path-1-inside-1_2118_6349" fill="white">
<path fill-rule="evenodd" clip-rule="evenodd" d="M166.432 12L154.5 0L142.568 12H12C5.37258 12 0 17.3726 0 24V184C0 190.627 5.37258 196 12 196H297C303.627 196 309 190.627 309 184V24C309 17.3726 303.627 12 297 12H166.432Z"/>
</mask>
<path d="M154.5 0L155.209 -0.705092L154.5 -1.41825L153.791 -0.705092L154.5 0ZM166.432 12L165.723 12.7051L166.016 13H166.432V12ZM142.568 12V13H142.984L143.277 12.7051L142.568 12ZM153.791 0.705092L165.723 12.7051L167.141 11.2949L155.209 -0.705092L153.791 0.705092ZM143.277 12.7051L155.209 0.705092L153.791 -0.705092L141.859 11.2949L143.277 12.7051ZM12 13H142.568V11H12V13ZM1 24C1 17.9249 5.92487 13 12 13V11C4.8203 11 -1 16.8203 -1 24H1ZM1 184V24H-1V184H1ZM12 195C5.92486 195 1 190.075 1 184H-1C-1 191.18 4.82029 197 12 197V195ZM297 195H12V197H297V195ZM308 184C308 190.075 303.075 195 297 195V197C304.18 197 310 191.18 310 184H308ZM308 24V184H310V24H308ZM297 13C303.075 13 308 17.9249 308 24H310C310 16.8203 304.18 11 297 11V13ZM166.432 13H297V11H166.432V13Z" fill="#EBECEC" mask="url(#path-1-inside-1_2118_6349)"/>
</g>
</svg>
